# xmcd CD database file
#
# Track frame offsets:
#	150
#	20703
#	34743
#	50920
#	67190
#	81633
#	94478
#	110692
#	126651
#	143590
#	160268
#
# Disc length: 2563 seconds
#
# Revision: 1
# Processed by: cddbd v1.5.2PL0 Copyright (c) Steve Scherf et al.
# Submitted via: CDex 1.70beta2
#
DISCID=ae0a010b
DTITLE=Various Artist - Exitos Solamente 5 - Disc 1
DYEAR=2004
DGENRE=Salsa
TTITLE0=Los Telez-Yo suy tu maestro
TTITLE1=Kalua-Celosa
TTITLE2=Grupo Paraiso-Cumbia de los pajaritos
TTITLE3=Erick León y La Jungla-Ukachaka
TTITLE4=Calle8-Mi Revancha
TTITLE5=Atendado Internacional-La Gallinita 1
TTITLE6=La Selección-Amor Pirata
TTITLE7=Mangle-Tantos desea de ella
TTITLE8=Karo´s-Porque te quiero
TTITLE9=Viente Cálido-Fiesta pagana (con Guaracharaca)
TTITLE10=Mix Sonidero 1
EXTD=YEAR: 2004
EXTT0=
EXTT1=
EXTT2=
EXTT3=
EXTT4=
EXTT5=
EXTT6=
EXTT7=
EXTT8=
EXTT9=
EXTT10=
PLAYORDER=
